<?xml version="1.0" encoding="UTF-8" standalone="no"?>
<svg
   xmlns:dc="http://purl.org/dc/elements/1.1/"
   xmlns:cc="http://creativecommons.org/ns#"
   xmlns:rdf="http://www.w3.org/1999/02/22-rdf-syntax-ns#"
   xmlns:svg="http://www.w3.org/2000/svg"
   xmlns="http://www.w3.org/2000/svg"
   xmlns:sodipodi="http://sodipodi.sourceforge.net/DTD/sodipodi-0.dtd"
   xmlns:inkscape="http://www.inkscape.org/namespaces/inkscape"
   inkscape:version="1.0 (4035a4fb49, 2020-05-01)"
   sodipodi:docname="sort.svg"
   xml:space="preserve"
   viewBox="0 0 240 240"
   height="240"
   width="240"
   y="0px"
   x="0px"
   id="Capa_1"
   version="1.1"><metadata
   id="metadata47"><rdf:RDF><cc:Work
       rdf:about=""><dc:format>image/svg+xml</dc:format><dc:type
         rdf:resource="http://purl.org/dc/dcmitype/StillImage" /><dc:title></dc:title></cc:Work></rdf:RDF></metadata><defs
   id="defs45" /><sodipodi:namedview
   inkscape:current-layer="Capa_1"
   inkscape:window-maximized="0"
   inkscape:window-y="28"
   inkscape:window-x="45"
   inkscape:cy="-15.259543"
   inkscape:cx="-62.909748"
   inkscape:zoom="1.0387984"
   inkscape:pagecheckerboard="true"
   showgrid="false"
   id="namedview43"
   inkscape:window-height="740"
   inkscape:window-width="1321"
   inkscape:pageshadow="2"
   inkscape:pageopacity="0"
   guidetolerance="10"
   gridtolerance="10"
   objecttolerance="10"
   borderopacity="1"
   bordercolor="#666666"
   pagecolor="#ffffff" />
<g
   transform="matrix(2.047502,0,0,2.047502,20.000322,20.000002)"
   id="g10">
	<g
   id="g8">
		<path
   id="path2"
   d="M 42.72,65.596 H 34.709 V 2 c 0,-1.105 -0.896,-2 -2,-2 h -16.13 c -1.104,0 -2,0.895 -2,2 V 65.596 H 6.568 c -0.77,0 -1.472,0.443 -1.804,1.137 -0.332,0.695 -0.236,1.517 0.246,2.117 l 18.076,26.955 c 0.38,0.473 0.953,0.746 1.558,0.746 0.605,0 1.178,-0.273 1.558,-0.746 L 44.278,68.85 c 0.482,-0.6 0.578,-1.422 0.246,-2.117 -0.332,-0.694 -1.034,-1.137 -1.804,-1.137 z" />
		<path
   id="path4"
   d="M 92.998,39.315 79.668,1.541 C 79.386,0.742 78.63,0.207 77.782,0.207 h -3.861 c -0.106,0 -0.213,0.008 -0.317,0.025 C 73.5,0.214 73.394,0.207 73.286,0.207 h -3.76 c -0.85,0 -1.605,0.535 -1.888,1.336 L 54.362,39.317 c -0.215,0.611 -0.12,1.289 0.255,1.818 0.375,0.529 0.982,0.844 1.632,0.844 h 5.774 c 0.88,0 1.656,-0.574 1.913,-1.416 l 2.535,-8.324 H 80.89 l 2.536,8.324 c 0.256,0.842 1.033,1.416 1.913,1.416 h 5.771 c 0.648,0 1.258,-0.314 1.633,-0.844 0.376,-0.531 0.47,-1.209 0.255,-1.82 z M 68.864,24.283 c 2.397,-7.77 4.02,-13.166 4.82,-16.041 l 4.928,16.041 z" />
		<path
   id="path6"
   d="M 87.255,89.838 H 69.438 L 88.366,62.633 c 0.232,-0.336 0.357,-0.734 0.357,-1.143 v -3.416 c 0,-1.104 -0.896,-2 -2,-2 h -26.07 c -1.104,0 -2,0.896 -2,2 v 3.844 c 0,1.105 0.896,2 2,2 H 77.435 L 58.481,91.094 c -0.234,0.336 -0.359,0.734 -0.359,1.145 v 3.441 c 0,1.105 0.896,2 2,2 h 27.135 c 1.104,0 2,-0.895 2,-2 v -3.842 c -0.002,-1.106 -0.896,-2 -2.002,-2 z" />
	</g>
</g>
<g
   transform="matrix(2.047502,0,0,2.047502,-4.7853322,0)"
   id="g12">
</g>
<g
   transform="matrix(2.047502,0,0,2.047502,-4.7853322,0)"
   id="g14">
</g>
<g
   transform="matrix(2.047502,0,0,2.047502,-4.7853322,0)"
   id="g16">
</g>
<g
   transform="matrix(2.047502,0,0,2.047502,-4.7853322,0)"
   id="g18">
</g>
<g
   transform="matrix(2.047502,0,0,2.047502,-4.7853322,0)"
   id="g20">
</g>
<g
   transform="matrix(2.047502,0,0,2.047502,-4.7853322,0)"
   id="g22">
</g>
<g
   transform="matrix(2.047502,0,0,2.047502,-4.7853322,0)"
   id="g24">
</g>
<g
   transform="matrix(2.047502,0,0,2.047502,-4.7853322,0)"
   id="g26">
</g>
<g
   transform="matrix(2.047502,0,0,2.047502,-4.7853322,0)"
   id="g28">
</g>
<g
   transform="matrix(2.047502,0,0,2.047502,-4.7853322,0)"
   id="g30">
</g>
<g
   transform="matrix(2.047502,0,0,2.047502,-4.7853322,0)"
   id="g32">
</g>
<g
   transform="matrix(2.047502,0,0,2.047502,-4.7853322,0)"
   id="g34">
</g>
<g
   transform="matrix(2.047502,0,0,2.047502,-4.7853322,0)"
   id="g36">
</g>
<g
   transform="matrix(2.047502,0,0,2.047502,-4.7853322,0)"
   id="g38">
</g>
<g
   transform="matrix(2.047502,0,0,2.047502,-4.7853322,0)"
   id="g40">
</g>
</svg>
