<?xml version="1.0" encoding="UTF-8" standalone="no"?>
<svg
   xmlns:dc="http://purl.org/dc/elements/1.1/"
   xmlns:cc="http://creativecommons.org/ns#"
   xmlns:rdf="http://www.w3.org/1999/02/22-rdf-syntax-ns#"
   xmlns:svg="http://www.w3.org/2000/svg"
   xmlns="http://www.w3.org/2000/svg"
   xmlns:sodipodi="http://sodipodi.sourceforge.net/DTD/sodipodi-0.dtd"
   xmlns:inkscape="http://www.inkscape.org/namespaces/inkscape"
   inkscape:output_extension="org.inkscape.output.svg.inkscape"
   sodipodi:docname="Bing_logo.svg"
   version="1.0"
   inkscape:version="1.0 (4035a4fb49, 2020-05-01)"
   sodipodi:version="0.32"
   id="svg2"
   height="240"
   width="240">
  <defs
     id="defs4">
    <inkscape:perspective
       id="perspective10"
       inkscape:persp3d-origin="372.04724 : 215.82239 : 1"
       inkscape:vp_z="744.09448 : 391.21609 : 1"
       inkscape:vp_y="0 : 1000 : 0"
       inkscape:vp_x="0 : 391.21609 : 1"
       sodipodi:type="inkscape:persp3d" />
    <inkscape:perspective
       sodipodi:type="inkscape:persp3d"
       inkscape:vp_x="0 : 391.21609 : 1"
       inkscape:vp_y="0 : 1000 : 0"
       inkscape:vp_z="744.09448 : 391.21609 : 1"
       inkscape:persp3d-origin="372.04724 : 215.82239 : 1"
       id="perspective2390" />
  </defs>
  <sodipodi:namedview
     inkscape:pagecheckerboard="true"
     inkscape:document-rotation="0"
     fit-margin-bottom="0"
     fit-margin-right="0"
     fit-margin-left="0"
     fit-margin-top="0"
     inkscape:window-maximized="0"
     inkscape:window-y="28"
     inkscape:window-x="45"
     inkscape:window-height="740"
     inkscape:window-width="1321"
     inkscape:guide-bbox="true"
     showguides="true"
     showgrid="false"
     inkscape:current-layer="layer1"
     inkscape:document-units="px"
     inkscape:cy="75.47569"
     inkscape:cx="150.45329"
     inkscape:zoom="1.9256535"
     inkscape:pageshadow="2"
     inkscape:pageopacity="0.0"
     objecttolerance="10"
     guidetolerance="10"
     gridtolerance="10000"
     borderopacity="1.0"
     bordercolor="#666666"
     pagecolor="#ffffff"
     id="base" />
  <metadata
     id="metadata7">
    <rdf:RDF>
      <cc:Work
         rdf:about="">
        <dc:format>image/svg+xml</dc:format>
        <dc:type
           rdf:resource="http://purl.org/dc/dcmitype/StillImage" />
        <dc:title></dc:title>
      </cc:Work>
    </rdf:RDF>
  </metadata>
  <g
     transform="translate(-280.67153,-193.4379)"
     id="layer1"
     inkscape:groupmode="layer"
     inkscape:label="Layer 1">
    <g
       transform="matrix(0.20000001,0,0,0.20000001,244.53722,237.30377)"
       id="g842">
      <path
         style="font-style:normal;font-weight:normal;font-size:781.268px;line-height:125%;font-family:'Bitstream Vera Sans';text-align:start;text-anchor:start;fill:#0075be;fill-opacity:1;stroke:none"
         d="m 694.56924,337.43064 v 112.718 h 45.7016 V 336.32197 c 3.87225,-64.23638 176.08482,-85.51376 193.23432,0 v 113.82667 h 47.82118 v -112.718 c -3.4e-4,-12.93469 -3.24062,-24.69927 -9.72063,-35.29366 -6.48069,-10.59411 -15.84683,-19.74088 -28.09856,-27.44031 -12.25228,-7.69915 -27.18747,-13.67382 -44.80572,-17.92405 -17.61879,-4.24983 -37.56621,-6.37484 -59.84234,-6.37504 -22.074,2e-4 -41.92012,2.1868 -59.53851,6.55985 -17.61865,4.3734 -32.75644,10.47123 -45.41338,18.29355 -12.65707,7.82266 -22.37756,17.03108 -29.16175,27.62519 -6.78412,10.59438 -10.17621,22.1125 -10.17621,34.55447 z"
         id="text2396"
         sodipodi:nodetypes="ccccccccssssssscc"
         inkscape:connector-curvature="0" />
      <path
         style="display:inline;overflow:visible;visibility:visible;fill:#0075be;fill-opacity:1;fill-rule:nonzero;stroke:#000000;stroke-width:0;stroke-miterlimit:4;stroke-opacity:1;marker:none;enable-background:accumulate"
         d="m 616.43749,262.24872 c 18.0667,7.60804 32.91329,3.94592 47.67881,0 v 188.9244 h -47.67881 z"
         id="rect2401"
         sodipodi:nodetypes="ccccc"
         inkscape:connector-curvature="0" />
      <ellipse
         style="display:inline;overflow:visible;visibility:visible;fill:#fba829;fill-opacity:1;fill-rule:nonzero;stroke:#000000;stroke-width:0;stroke-miterlimit:4;stroke-dasharray:none;stroke-opacity:1;marker:none;enable-background:accumulate"
         id="path2404"
         cx="640.23956"
         cy="217.79605"
         rx="34.796692"
         ry="24.357687" />
      <path
         style="font-style:normal;font-weight:normal;font-size:3120.79px;line-height:125%;font-family:'Bitstream Vera Sans';text-align:start;text-anchor:start;fill:#0075be;fill-opacity:1;stroke:none"
         d="m 595.24098,365.58923 c 5.95912,-43.48581 -23.98127,-71.76091 -43.87159,-85.58437 -29.42384,-20.44911 -66.50256,-30.54133 -102.38338,-32.41017 -42.3569,-0.41824 -83.48427,5.09975 -121.15131,31.30177 v -80.56514 h -47.15798 v 145.98943 c -0.53638,61.13305 40.60627,87.31484 93.58573,107.39079 19.24905,4.74839 40.57789,7.12265 63.98659,7.12265 23.02136,0 44.10842,-2.37426 63.26105,-7.12265 19.15216,-4.74852 35.69289,-12.38135 49.6222,-20.76103 13.92877,-8.37961 24.76249,-18.18382 32.50116,-29.41256 7.73799,-11.22867 11.60719,-23.2116 11.60753,-35.94872 z m -143.0978,67.21078 c -52.98089,1.65395 -115.0744,-14.33941 -121.10208,-76.49463 -3.34932,-34.53716 31.04818,-78.02535 107.20794,-80.70657 31.31365,-1.10236 104.35923,16.35823 109.34552,75.36266 3.07414,36.37701 -42.47042,80.18465 -95.45138,81.83854 z"
         id="text2406"
         sodipodi:nodetypes="csccccccsssscccsssz"
         inkscape:connector-curvature="0" />
      <path
         style="font-style:normal;font-weight:normal;font-size:10988.2px;line-height:125%;font-family:'Bitstream Vera Sans';text-align:start;text-anchor:start;fill:#0075be;fill-opacity:1;stroke:none"
         d="m 1259.1504,336.92699 c -0.034,-22.35896 -12.1977,-38.368 -25.9604,-51.80404 15.3857,-1.68851 31.782,-1.78669 47.4815,-0.50176 v -43.47922 c -31.117,-2.20269 -67.0098,6.63848 -85.7478,19.20871 -4.8336,-1.87088 -9.9108,-3.56971 -15.2319,-5.09608 -16.3436,-4.68817 -34.2885,-7.03228 -53.8348,-7.03242 -19.875,1.4e-4 -37.9431,2.34432 -54.2043,7.03242 -16.2613,4.68843 -30.3052,11.00162 -42.1315,18.93964 -11.8265,7.93829 -21.0248,17.31482 -27.5949,28.12973 -6.5703,10.81518 -9.85539,22.34939 -9.85532,34.60282 -7e-5,12.14703 3.28502,23.52141 9.85532,34.12326 6.5701,10.60199 15.522,19.89868 26.8557,27.89006 11.3336,7.99138 24.5562,14.25134 39.6678,18.77975 28.5661,7.02854 59.9702,10.24281 89.1851,5.0569 79.0696,30.22121 47.7263,91.22308 17.9888,104.12614 -54.7247,23.74513 -104.7283,10.4349 -127.0535,-25.43608 h -50.71209 c 18.35349,51.08101 91.05669,66.01105 126.14829,66.42433 75.8727,0.89372 160.1076,-49.28625 126.563,-119.40475 -9.6005,-20.06787 -32.7582,-36.50262 -46.9051,-40.05719 35.5766,-15.94352 55.5322,-41.8028 55.4861,-71.50242 z m -133.2934,60.96507 c -46.2601,0 -83.4647,-27.70395 -83.4647,-60.64541 0,-41.32359 52.5286,-61.60446 83.4647,-61.60446 46.6539,0 82.2099,29.96375 82.2099,61.60446 0,40.87812 -45.9627,60.64541 -82.2099,60.64541 z"
         id="text2411"
         sodipodi:nodetypes="cccccssssssssccsccsscscssss"
         inkscape:connector-curvature="0" />
    </g>
  </g>
</svg>
