<?xml version="1.0" encoding="UTF-8" standalone="no"?>
<svg
   xmlns:dc="http://purl.org/dc/elements/1.1/"
   xmlns:cc="http://creativecommons.org/ns#"
   xmlns:rdf="http://www.w3.org/1999/02/22-rdf-syntax-ns#"
   xmlns:svg="http://www.w3.org/2000/svg"
   xmlns="http://www.w3.org/2000/svg"
   xmlns:sodipodi="http://sodipodi.sourceforge.net/DTD/sodipodi-0.dtd"
   xmlns:inkscape="http://www.inkscape.org/namespaces/inkscape"
   inkscape:version="1.0 (4035a4fb49, 2020-05-01)"
   sodipodi:docname="startpage.svg"
   id="svg10"
   preserveAspectRatio="xMidYMid meet"
   viewBox="0 0 320 320"
   height="240pt"
   width="240pt"
   version="1.0">
  <defs
     id="defs14" />
  <sodipodi:namedview
     inkscape:current-layer="svg10"
     inkscape:window-maximized="0"
     inkscape:window-y="28"
     inkscape:window-x="45"
     inkscape:cy="199.78299"
     inkscape:cx="214.314"
     inkscape:zoom="1.5220473"
     inkscape:pagecheckerboard="true"
     showgrid="false"
     id="namedview12"
     inkscape:window-height="740"
     inkscape:window-width="1321"
     inkscape:pageshadow="2"
     inkscape:pageopacity="0"
     guidetolerance="10"
     gridtolerance="10"
     objecttolerance="10"
     borderopacity="1"
     bordercolor="#666666"
     pagecolor="#ffffff" />
  <metadata
     id="metadata2">
Created by potrace 1.16, written by Peter Selinger 2001-2019
<rdf:RDF>
  <cc:Work
     rdf:about="">
    <dc:format>image/svg+xml</dc:format>
    <dc:type
       rdf:resource="http://purl.org/dc/dcmitype/StillImage" />
    <dc:title></dc:title>
  </cc:Work>
</rdf:RDF>
</metadata>
  <g
     transform="matrix(0.5,0,0,0.5,60,60)"
     id="g850">
    <rect
       style="fill:#ffffff;fill-opacity:1;stroke-width:0.75"
       id="rect843"
       width="400"
       height="400"
       x="0"
       y="0"
       ry="0" />
    <path
       style="fill:#6372ff;fill-opacity:1;stroke:none;stroke-width:0.1"
       id="path4"
       d="m 0,103.1 v 103.2 l 4.8,-0.7 c 2.6,-0.3 17.1,-1.7 32.2,-3 57.5,-5.2 102.6,-6.5 213.5,-6.1 72.7,0.3 103.4,0.9 140.3,2.9 l 9.2,0.5 V 100 0 H 200 0 Z" />
    <path
       style="fill:#1f2845;fill-opacity:1;stroke:none;stroke-width:0.1"
       id="path6"
       d="m 385,228.7 c -125.3,2.9 -235.6,9.7 -356,21.8 -8.5,0.9 -18.5,1.8 -22.2,2.2 L 0,253.3 v 73.3 73.4 h 200 200 v -86 -86 l -2.2,0.2 c -1.3,0.1 -7,0.3 -12.8,0.5 z" />
  </g>
</svg>
