<?xml version="1.0" encoding="UTF-8" standalone="no"?>
<svg
   xmlns:dc="http://purl.org/dc/elements/1.1/"
   xmlns:cc="http://creativecommons.org/ns#"
   xmlns:rdf="http://www.w3.org/1999/02/22-rdf-syntax-ns#"
   xmlns:svg="http://www.w3.org/2000/svg"
   xmlns="http://www.w3.org/2000/svg"
   xmlns:sodipodi="http://sodipodi.sourceforge.net/DTD/sodipodi-0.dtd"
   xmlns:inkscape="http://www.inkscape.org/namespaces/inkscape"
   inkscape:version="1.0 (4035a4fb49, 2020-05-01)"
   sodipodi:docname="ic_access_time_48px.svg"
   id="svg4"
   version="1.1"
   viewBox="0 0 240 240"
   height="240"
   width="240">
  <metadata
     id="metadata10">
    <rdf:RDF>
      <cc:Work
         rdf:about="">
        <dc:format>image/svg+xml</dc:format>
        <dc:type
           rdf:resource="http://purl.org/dc/dcmitype/StillImage" />
        <dc:title></dc:title>
      </cc:Work>
    </rdf:RDF>
  </metadata>
  <defs
     id="defs8">
    <filter
       height="1.0004977"
       y="-0.000248832"
       width="1.0004977"
       x="-0.000248832"
       id="filter847"
       style="color-interpolation-filters:sRGB"
       inkscape:collect="always">
      <feGaussianBlur
         id="feGaussianBlur849"
         stdDeviation="0.020736"
         inkscape:collect="always" />
    </filter>
  </defs>
  <sodipodi:namedview
     inkscape:current-layer="svg4"
     inkscape:window-maximized="0"
     inkscape:window-y="28"
     inkscape:window-x="45"
     inkscape:cy="96.232623"
     inkscape:cx="-18.551426"
     inkscape:zoom="1.3546911"
     inkscape:pagecheckerboard="true"
     showgrid="false"
     id="namedview6"
     inkscape:window-height="740"
     inkscape:window-width="1321"
     inkscape:pageshadow="2"
     inkscape:pageopacity="0"
     guidetolerance="10"
     gridtolerance="10"
     objecttolerance="10"
     borderopacity="1"
     bordercolor="#666666"
     pagecolor="#ffffff" />
  <path
     style="stroke-width:5;filter:url(#filter847);fill:#888888;fill-opacity:1"
     id="path2"
     d="M 119.95,20 C 64.7,20 20,64.75 20,120 20,175.25 64.7,220 119.95,220 175.2,220 220,175.25 220,120 220,64.75 175.2,20 119.95,20 Z M 120,200 c -44.2,0 -80,-35.8 -80,-80 0,-44.2 35.8,-80 80,-80 44.2,0 80,35.8 80,80 0,44.2 -35.8,80 -80,80 z m 5,-130 h -15 v 60 l 52.45,31.5 7.55,-12.3 -45,-26.7 z" />
</svg>
