<?xml version="1.0" encoding="UTF-8" standalone="no"?>
<svg
   xmlns:dc="http://purl.org/dc/elements/1.1/"
   xmlns:cc="http://creativecommons.org/ns#"
   xmlns:rdf="http://www.w3.org/1999/02/22-rdf-syntax-ns#"
   xmlns:svg="http://www.w3.org/2000/svg"
   xmlns="http://www.w3.org/2000/svg"
   xmlns:sodipodi="http://sodipodi.sourceforge.net/DTD/sodipodi-0.dtd"
   xmlns:inkscape="http://www.inkscape.org/namespaces/inkscape"
   inkscape:version="1.0 (4035a4fb49, 2020-05-01)"
   sodipodi:docname="sun.svg"
   xml:space="preserve"
   viewBox="0 0 240 240"
   height="240"
   width="240"
   y="0px"
   x="0px"
   id="Capa_1"
   version="1.1"><metadata
   id="metadata59"><rdf:RDF><cc:Work
       rdf:about=""><dc:format>image/svg+xml</dc:format><dc:type
         rdf:resource="http://purl.org/dc/dcmitype/StillImage" /><dc:title></dc:title></cc:Work></rdf:RDF></metadata><defs
   id="defs57" /><sodipodi:namedview
   inkscape:current-layer="Capa_1"
   inkscape:window-maximized="0"
   inkscape:window-y="28"
   inkscape:window-x="45"
   inkscape:cy="180.37844"
   inkscape:cx="202.18439"
   inkscape:zoom="0.53727209"
   inkscape:pagecheckerboard="true"
   showgrid="false"
   id="namedview55"
   inkscape:window-height="740"
   inkscape:window-width="1321"
   inkscape:pageshadow="2"
   inkscape:pageopacity="0"
   guidetolerance="10"
   gridtolerance="10"
   objecttolerance="10"
   borderopacity="1"
   bordercolor="#666666"
   pagecolor="#ffffff" />















<g
   style="fill:#888888;fill-opacity:1"
   transform="matrix(0.37440656,0,0,0.37440656,19.999702,19.999812)"
   id="g910"><g
     style="fill:#888888;fill-opacity:1"
     id="g22">
	<g
   style="fill:#888888;fill-opacity:1"
   id="g20">
		<path
   style="fill:#888888;fill-opacity:1"
   d="m 118.309,328.676 c 25.016,60.432 83.44,99.477 148.845,99.477 14.137,0 28.069,-1.891 41.643,-5.553 0.539,-0.145 1.077,-0.297 1.613,-0.447 6.169,-1.734 12.271,-3.797 18.268,-6.279 82.042,-33.959 121.158,-128.33 87.198,-210.366 -25.013,-60.432 -83.438,-99.48 -148.841,-99.48 -21.139,0 -41.839,4.134 -61.524,12.283 -39.744,16.451 -70.698,47.39 -87.17,87.125 -16.474,39.732 -16.483,83.5 -0.032,123.24 z m 19.819,-115.041 c 14.278,-34.449 41.117,-61.273 75.57,-75.536 17.078,-7.068 35.021,-10.652 53.336,-10.652 56.707,0 107.359,33.856 129.049,86.252 29.373,70.965 -4.324,152.559 -75.117,182.17 4.061,-28.369 0.45,-57.078 -10.704,-84.029 -28.497,-68.847 -100.294,-108.422 -172.323,-97.706 0.064,-0.166 0.122,-0.334 0.189,-0.499 z"
   id="path2" />
		<path
   style="fill:#888888;fill-opacity:1"
   d="m 140.377,115.28 c 1.913,1.487 4.235,2.258 6.582,2.258 1.383,0 2.775,-0.266 4.094,-0.814 l 91.858,-38.021 c 3.562,-1.472 6.056,-4.746 6.533,-8.568 0.477,-3.822 -1.135,-7.607 -4.223,-9.912 L 167.376,2.127 c -3.026,-2.258 -7.014,-2.757 -10.502,-1.312 -3.488,1.445 -5.958,4.614 -6.502,8.351 l -14.012,96.118 c -0.554,3.812 0.979,7.631 4.017,9.996 z"
   id="path4" />
		<path
   style="fill:#888888;fill-opacity:1"
   d="m 455.478,242.91 c 1.472,3.562 4.746,6.056 8.568,6.533 0.446,0.055 0.89,0.083 1.331,0.083 3.354,0 6.545,-1.576 8.583,-4.305 l 58.094,-77.843 c 2.256,-3.023 2.754,-7.014 1.312,-10.502 -1.44,-3.488 -4.614,-5.958 -8.351,-6.502 l -96.117,-14.015 c -3.819,-0.56 -7.629,0.976 -9.997,4.018 -2.368,3.042 -2.919,7.117 -1.444,10.676 z"
   id="path6" />
		<path
   style="fill:#888888;fill-opacity:1"
   d="m 373.216,534.18 c 1.383,0 2.775,-0.268 4.094,-0.814 3.488,-1.445 5.958,-4.615 6.503,-8.352 l 14.015,-96.117 c 0.557,-3.812 -0.979,-7.629 -4.018,-9.996 -3.039,-2.363 -7.118,-2.916 -10.677,-1.445 l -91.858,38.023 c -3.562,1.473 -6.056,4.746 -6.532,8.568 -0.478,3.822 1.135,7.607 4.223,9.912 l 77.843,58.094 c 1.878,1.404 4.132,2.127 6.407,2.127 z"
   id="path8" />
		<path
   style="fill:#888888;fill-opacity:1"
   d="m 9.168,383.811 96.118,14.012 c 0.517,0.074 1.031,0.113 1.545,0.113 0.021,0 0.043,0 0.064,0 5.912,-0.004 10.704,-4.795 10.704,-10.711 0,-1.848 -0.468,-3.588 -1.294,-5.105 L 78.7,291.273 c -1.472,-3.562 -4.746,-6.057 -8.568,-6.533 -3.837,-0.48 -7.61,1.135 -9.912,4.223 L 2.126,366.809 c -2.255,3.023 -2.754,7.014 -1.312,10.502 1.442,3.488 4.621,5.955 8.354,6.5 z"
   id="path10" />
		<path
   style="fill:#888888;fill-opacity:1"
   d="m 291.363,78.716 91.84,38.066 c 1.322,0.548 2.715,0.817 4.101,0.817 2.344,0 4.663,-0.768 6.576,-2.255 3.041,-2.366 4.577,-6.181 4.023,-9.994 L 383.94,9.227 c -0.544,-3.736 -3.011,-6.91 -6.499,-8.354 -3.488,-1.444 -7.479,-0.946 -10.502,1.307 l -77.874,58.057 c -3.088,2.301 -4.703,6.086 -4.226,9.909 0.474,3.821 2.966,7.096 6.524,8.57 z"
   id="path12" />
		<path
   style="fill:#888888;fill-opacity:1"
   d="m 473.947,289.064 c -2.304,-3.088 -6.086,-4.703 -9.908,-4.227 -3.825,0.475 -7.096,2.969 -8.57,6.527 l -38.066,91.84 c -1.476,3.559 -0.925,7.637 1.44,10.676 2.044,2.629 5.178,4.135 8.452,4.135 0.511,0 1.025,-0.037 1.542,-0.111 l 96.124,-13.965 c 3.733,-0.545 6.906,-3.012 8.354,-6.5 1.444,-3.488 0.949,-7.475 -1.307,-10.502 z"
   id="path14" />
		<path
   style="fill:#888888;fill-opacity:1"
   d="m 249.347,464.037 c -0.474,-3.824 -2.968,-7.096 -6.527,-8.57 L 150.98,417.4 c -3.565,-1.475 -7.641,-0.928 -10.676,1.441 -3.042,2.365 -4.578,6.182 -4.024,9.994 l 13.966,96.127 c 0.544,3.732 3.011,6.906 6.5,8.354 1.322,0.547 2.714,0.816 4.1,0.816 2.271,0 4.526,-0.723 6.402,-2.123 l 77.874,-58.059 c 3.087,-2.305 4.699,-6.091 4.225,-9.913 z"
   id="path16" />
		<path
   style="fill:#888888;fill-opacity:1"
   d="m 60.236,245.119 c 2.038,2.732 5.229,4.309 8.586,4.309 0.441,0 0.881,-0.028 1.325,-0.083 3.825,-0.475 7.096,-2.968 8.571,-6.527 l 38.066,-91.84 c 1.475,-3.559 0.924,-7.638 -1.441,-10.676 -2.366,-3.042 -6.181,-4.578 -9.994,-4.024 L 9.226,150.244 c -3.733,0.545 -6.907,3.011 -8.354,6.5 -1.444,3.489 -0.949,7.476 1.307,10.502 z"
   id="path18" />
	</g>
</g><g
     style="fill:#888888;fill-opacity:1"
     id="g24">
</g><g
     style="fill:#888888;fill-opacity:1"
     id="g26">
</g><g
     style="fill:#888888;fill-opacity:1"
     id="g28">
</g><g
     style="fill:#888888;fill-opacity:1"
     id="g30">
</g><g
     style="fill:#888888;fill-opacity:1"
     id="g32">
</g><g
     style="fill:#888888;fill-opacity:1"
     id="g34">
</g><g
     style="fill:#888888;fill-opacity:1"
     id="g36">
</g><g
     style="fill:#888888;fill-opacity:1"
     id="g38">
</g><g
     style="fill:#888888;fill-opacity:1"
     id="g40">
</g><g
     style="fill:#888888;fill-opacity:1"
     id="g42">
</g><g
     style="fill:#888888;fill-opacity:1"
     id="g44">
</g><g
     style="fill:#888888;fill-opacity:1"
     id="g46">
</g><g
     style="fill:#888888;fill-opacity:1"
     id="g48">
</g><g
     style="fill:#888888;fill-opacity:1"
     id="g50">
</g><g
     style="fill:#888888;fill-opacity:1"
     id="g52">
</g></g>
</svg>
