<?xml version="1.0" encoding="UTF-8" standalone="no"?>
<svg
   xmlns:dc="http://purl.org/dc/elements/1.1/"
   xmlns:cc="http://creativecommons.org/ns#"
   xmlns:rdf="http://www.w3.org/1999/02/22-rdf-syntax-ns#"
   xmlns:svg="http://www.w3.org/2000/svg"
   xmlns="http://www.w3.org/2000/svg"
   xmlns:sodipodi="http://sodipodi.sourceforge.net/DTD/sodipodi-0.dtd"
   xmlns:inkscape="http://www.inkscape.org/namespaces/inkscape"
   sodipodi:docname="light-mode.svg"
   inkscape:version="1.0 (4035a4fb49, 2020-05-01)"
   id="svg3922"
   version="1.1"
   viewBox="0 0 63.5 63.5"
   height="240"
   width="240">
  <defs
     id="defs3916" />
  <sodipodi:namedview
     inkscape:document-rotation="0"
     units="px"
     inkscape:pagecheckerboard="true"
     inkscape:window-maximized="0"
     inkscape:window-y="28"
     inkscape:window-x="45"
     inkscape:window-height="740"
     inkscape:window-width="1321"
     showgrid="false"
     inkscape:current-layer="layer1"
     inkscape:document-units="mm"
     inkscape:cy="86.262128"
     inkscape:cx="79.63974"
     inkscape:zoom="0.98994949"
     inkscape:pageshadow="2"
     inkscape:pageopacity="1"
     borderopacity="1.0"
     bordercolor="#666666"
     pagecolor="#ffffff"
     id="base" />
  <metadata
     id="metadata3919">
    <rdf:RDF>
      <cc:Work
         rdf:about="">
        <dc:format>image/svg+xml</dc:format>
        <dc:type
           rdf:resource="http://purl.org/dc/dcmitype/StillImage" />
        <dc:title></dc:title>
      </cc:Work>
    </rdf:RDF>
  </metadata>
  <g
     transform="translate(0,-233.5)"
     id="layer1"
     inkscape:groupmode="layer"
     inkscape:label="Layer 1">
    <path
       id="path489"
       d="m 30.722781,238.79167 h 3.11277 v 9.33824 h -3.11277 z m 1.556354,38.90931 c 6.876065,0 12.451005,-5.57488 12.451005,-12.45094 0,-6.87606 -5.57494,-12.45101 -12.451005,-12.45101 -6.876061,0 -12.450943,5.57495 -12.450943,12.45101 0,6.87606 5.574882,12.45094 12.450943,12.45094 z m 1.556416,14.00736 v -9.33824 h -3.11277 v 9.33824 z M 5.8208332,266.80639 v -3.11276 h 9.3382418 v 3.11276 z M 58.7375,263.69363 h -9.338242 v 3.11276 H 58.7375 Z m -45.488135,-14.95984 2.200709,-2.2007 5.501825,5.50177 -2.200709,2.2007 z m 31.91501,27.51354 -2.202291,2.2023 5.503354,5.50177 2.200704,-2.20071 z m -29.401421,8.03248 -2.200767,-2.20071 5.501825,-5.50336 2.200709,2.20071 z m 27.513539,-31.91189 2.202297,2.2007 5.501767,-5.50176 -2.200709,-2.2023 z"
       style="clip-rule:evenodd;fill:#fcde00;fill-rule:evenodd;stroke-width:1.55637"
       inkscape:connector-curvature="0" />
  </g>
</svg>
